<mxfile host="app.diagrams.net" modified="2023-09-08T07:15:16.309Z" agent="Mozilla/5.0 (Windows NT 10.0; Win64; x64) AppleWebKit/537.36 (KHTML, like Gecko) Chrome/116.0.0.0 Safari/537.36" etag="YV1jnyWfgFcbeOz1odRc" version="21.7.2" type="device">
  <diagram name="Page-1" id="2seHxbLakp2eHcRAml-4">
    <mxGraphModel dx="793" dy="461" grid="1" gridSize="10" guides="1" tooltips="1" connect="1" arrows="1" fold="1" page="1" pageScale="1" pageWidth="827" pageHeight="1169" math="0" shadow="0">
      <root>
        <mxCell id="0" />
        <mxCell id="1" parent="0" />
        <mxCell id="O4e8Ljlv0WAscUi4HRns-2" value="L&#39;utilisateur écrit dans la barre de recherche ?&amp;nbsp;" style="shape=process;whiteSpace=wrap;html=1;backgroundOutline=1;" vertex="1" parent="1">
          <mxGeometry x="300" y="20" width="186" height="90" as="geometry" />
        </mxCell>
        <mxCell id="O4e8Ljlv0WAscUi4HRns-3" value="" style="endArrow=classic;html=1;rounded=0;" edge="1" parent="1">
          <mxGeometry width="50" height="50" relative="1" as="geometry">
            <mxPoint x="430" y="120" as="sourcePoint" />
            <mxPoint x="560" y="160" as="targetPoint" />
          </mxGeometry>
        </mxCell>
        <mxCell id="O4e8Ljlv0WAscUi4HRns-4" value="" style="endArrow=classic;html=1;rounded=0;" edge="1" parent="1">
          <mxGeometry width="50" height="50" relative="1" as="geometry">
            <mxPoint x="370" y="120" as="sourcePoint" />
            <mxPoint x="240" y="160" as="targetPoint" />
          </mxGeometry>
        </mxCell>
        <mxCell id="O4e8Ljlv0WAscUi4HRns-6" value="Oui" style="shape=process;whiteSpace=wrap;html=1;backgroundOutline=1;direction=west;" vertex="1" parent="1">
          <mxGeometry x="170" y="170" width="120" height="60" as="geometry" />
        </mxCell>
        <mxCell id="O4e8Ljlv0WAscUi4HRns-7" value="Non" style="shape=process;whiteSpace=wrap;html=1;backgroundOutline=1;" vertex="1" parent="1">
          <mxGeometry x="500" y="170" width="120" height="60" as="geometry" />
        </mxCell>
        <mxCell id="O4e8Ljlv0WAscUi4HRns-9" value="" style="endArrow=classic;html=1;rounded=0;" edge="1" parent="1">
          <mxGeometry width="50" height="50" relative="1" as="geometry">
            <mxPoint x="534" y="350" as="sourcePoint" />
            <mxPoint x="484" y="400" as="targetPoint" />
          </mxGeometry>
        </mxCell>
        <mxCell id="O4e8Ljlv0WAscUi4HRns-12" value="La liste de résultats n&#39;est pas filtrée" style="shape=process;whiteSpace=wrap;html=1;backgroundOutline=1;" vertex="1" parent="1">
          <mxGeometry x="490" y="280" width="150" height="60" as="geometry" />
        </mxCell>
        <mxCell id="O4e8Ljlv0WAscUi4HRns-14" value="" style="endArrow=classic;html=1;rounded=0;" edge="1" parent="1">
          <mxGeometry width="50" height="50" relative="1" as="geometry">
            <mxPoint x="570" y="240" as="sourcePoint" />
            <mxPoint x="570" y="270" as="targetPoint" />
            <Array as="points">
              <mxPoint x="570" y="260" />
            </Array>
          </mxGeometry>
        </mxCell>
        <mxCell id="O4e8Ljlv0WAscUi4HRns-16" value="" style="endArrow=classic;html=1;rounded=0;" edge="1" parent="1">
          <mxGeometry width="50" height="50" relative="1" as="geometry">
            <mxPoint x="260" y="350" as="sourcePoint" />
            <mxPoint x="300" y="400" as="targetPoint" />
          </mxGeometry>
        </mxCell>
        <mxCell id="O4e8Ljlv0WAscUi4HRns-20" value="La liste de résultats est filtrée en cherchant dans le nom, la description et les ingrédients" style="shape=process;whiteSpace=wrap;html=1;backgroundOutline=1;" vertex="1" parent="1">
          <mxGeometry x="110" y="280" width="220" height="60" as="geometry" />
        </mxCell>
        <mxCell id="O4e8Ljlv0WAscUi4HRns-21" value="" style="endArrow=classic;html=1;rounded=0;" edge="1" parent="1">
          <mxGeometry width="50" height="50" relative="1" as="geometry">
            <mxPoint x="226" y="240" as="sourcePoint" />
            <mxPoint x="226" y="270" as="targetPoint" />
            <Array as="points">
              <mxPoint x="226" y="260" />
            </Array>
          </mxGeometry>
        </mxCell>
        <mxCell id="O4e8Ljlv0WAscUi4HRns-22" value="L&#39;utilisateur séléctionne des options ?" style="shape=process;whiteSpace=wrap;html=1;backgroundOutline=1;" vertex="1" parent="1">
          <mxGeometry x="280" y="420" width="220" height="60" as="geometry" />
        </mxCell>
        <mxCell id="O4e8Ljlv0WAscUi4HRns-23" value="" style="endArrow=classic;html=1;rounded=0;" edge="1" parent="1">
          <mxGeometry width="50" height="50" relative="1" as="geometry">
            <mxPoint x="420" y="490" as="sourcePoint" />
            <mxPoint x="550" y="530" as="targetPoint" />
          </mxGeometry>
        </mxCell>
        <mxCell id="O4e8Ljlv0WAscUi4HRns-24" value="" style="endArrow=classic;html=1;rounded=0;" edge="1" parent="1">
          <mxGeometry width="50" height="50" relative="1" as="geometry">
            <mxPoint x="360" y="490" as="sourcePoint" />
            <mxPoint x="230" y="530" as="targetPoint" />
          </mxGeometry>
        </mxCell>
        <mxCell id="O4e8Ljlv0WAscUi4HRns-25" value="Oui" style="shape=process;whiteSpace=wrap;html=1;backgroundOutline=1;direction=west;" vertex="1" parent="1">
          <mxGeometry x="160" y="540" width="120" height="60" as="geometry" />
        </mxCell>
        <mxCell id="O4e8Ljlv0WAscUi4HRns-26" value="Non" style="shape=process;whiteSpace=wrap;html=1;backgroundOutline=1;" vertex="1" parent="1">
          <mxGeometry x="490" y="540" width="120" height="60" as="geometry" />
        </mxCell>
      </root>
    </mxGraphModel>
  </diagram>
</mxfile>
